<svg id="Layer_1" data-name="Layer 1" xmlns="http://www.w3.org/2000/svg" viewBox="0 0 1524.73 1150.99"><defs><style>.cls-1{fill:none;stroke:#000;stroke-linecap:round;stroke-linejoin:round;}</style></defs><title>Cutout_joined</title><g id="LINE"><line class="cls-1" x1="113.89" y1="211.29" x2="397.35" y2="211.29"/></g><g id="ARC"><path class="cls-1" d="M409.07,220.23a8.5,8.5,0,0,0,0-17H125.6a8.5,8.5,0,0,0,0,17" transform="translate(-11.72 -8.93)"/></g><g id="ARC-2" data-name="ARC"><path class="cls-1" d="M125.6,228.73a8.5,8.5,0,0,0,0,17H409.07a8.5,8.5,0,0,0,0-17Z" transform="translate(-11.72 -8.93)"/></g><g id="ARC-3" data-name="ARC"><path class="cls-1" d="M125.6,254.24a8.5,8.5,0,0,0,0,17H409.07a8.5,8.5,0,1,0,0-17Z" transform="translate(-11.72 -8.93)"/></g><g id="ARC-4" data-name="ARC"><path class="cls-1" d="M125.6,279.75a8.5,8.5,0,0,0,0,17H409.07a8.5,8.5,0,0,0,0-17Z" transform="translate(-11.72 -8.93)"/></g><g id="CIRCLE"><path class="cls-1" d="M403.4,511.51a5.67,5.67,0,1,1,5.67,5.67,5.67,5.67,0,0,1-5.67-5.67Z" transform="translate(-11.72 -8.93)"/></g><g id="CIRCLE-2" data-name="CIRCLE"><path class="cls-1" d="M403.4,427.73a5.67,5.67,0,1,1,5.67,5.67,5.67,5.67,0,0,1-5.67-5.67Z" transform="translate(-11.72 -8.93)"/></g><g id="CIRCLE-3" data-name="CIRCLE"><path class="cls-1" d="M119.93,427.73a5.67,5.67,0,1,1,5.67,5.67,5.67,5.67,0,0,1-5.67-5.67Z" transform="translate(-11.72 -8.93)"/></g><g id="ARC-5" data-name="ARC"><path class="cls-1" d="M125.6,305.26a8.5,8.5,0,0,0,0,17H409.07a8.5,8.5,0,0,0,0-17Z" transform="translate(-11.72 -8.93)"/></g><g id="CIRCLE-4" data-name="CIRCLE"><path class="cls-1" d="M119.93,98.42a5.67,5.67,0,1,1,5.67,5.67,5.67,5.67,0,0,1-5.67-5.67Z" transform="translate(-11.72 -8.93)"/></g><g id="CIRCLE-5" data-name="CIRCLE"><path class="cls-1" d="M403.4,98.42a5.67,5.67,0,1,1,5.67,5.67,5.67,5.67,0,0,1-5.67-5.67Z" transform="translate(-11.72 -8.93)"/></g><g id="CIRCLE-6" data-name="CIRCLE"><path class="cls-1" d="M119.93,511.51a5.67,5.67,0,1,1,5.67,5.67,5.67,5.67,0,0,1-5.67-5.67Z" transform="translate(-11.72 -8.93)"/></g><g id="CIRCLE-7" data-name="CIRCLE"><path class="cls-1" d="M261.66,470.39a5.67,5.67,0,1,1,5.67,5.67,5.67,5.67,0,0,1-5.67-5.67Z" transform="translate(-11.72 -8.93)"/></g><g id="CIRCLE-8" data-name="CIRCLE"><path class="cls-1" d="M261.66,582.49a5.67,5.67,0,1,1,5.67,5.67,5.67,5.67,0,0,1-5.67-5.67Z" transform="translate(-11.72 -8.93)"/></g><g id="ARC-6" data-name="ARC"><path class="cls-1" d="M125.6,177.71a8.5,8.5,0,1,0,0,17H409.07a8.5,8.5,0,0,0,0-17Z" transform="translate(-11.72 -8.93)"/></g><g id="LINE-2" data-name="LINE"><path class="cls-1" d="M132.3,9.43v6.7H402.37V9.43h56.69v6.7h56.69v50h6.7v56.69h-6.7v212.6h6.7v56.69h-6.7v212.6h6.7V661.4h-6.7V718.1H359.85a92.52,92.52,0,0,1-185,0H18.91V661.4h-6.7V604.71h6.7V392.11h-6.7V335.42h6.7V122.82h-6.7V66.13h6.7v-50H75.6V9.43Z" transform="translate(-11.72 -8.93)"/></g><g id="ARC-7" data-name="ARC"><path class="cls-1" d="M90.17,982.51a8.5,8.5,0,0,0,0,17H444.5a8.5,8.5,0,0,0,0-17Z" transform="translate(-11.72 -8.93)"/></g><g id="ARC-8" data-name="ARC"><path class="cls-1" d="M90.17,1016.53a8.5,8.5,0,1,0,0,17H444.5a8.5,8.5,0,1,0,0-17Z" transform="translate(-11.72 -8.93)"/></g><g id="ARC-9" data-name="ARC"><path class="cls-1" d="M90.17,1050.54a8.5,8.5,0,1,0,0,17H444.5a8.5,8.5,0,0,0,0-17Z" transform="translate(-11.72 -8.93)"/></g><g id="LINE-3" data-name="LINE"><polygon class="cls-1" points="7.2 1150.49 7.2 1093.8 0.5 1093.8 0.5 1037.1 7.2 1037.1 7.2 938.63 0.5 938.63 0.5 881.93 7.2 881.93 7.2 831.85 504.04 831.85 504.04 881.93 510.74 881.93 510.74 938.63 504.04 938.63 504.04 1037.1 510.74 1037.1 510.74 1093.8 504.04 1093.8 504.04 1150.49 7.2 1150.49"/></g><g id="CIRCLE-9" data-name="CIRCLE"><path class="cls-1" d="M701.87,122.82a15.59,15.59,0,1,1,15.59,15.59,15.59,15.59,0,0,1-15.59-15.59Z" transform="translate(-11.72 -8.93)"/></g><g id="CIRCLE-10" data-name="CIRCLE"><path class="cls-1" d="M827.3,59a7.09,7.09,0,1,1,7.09,7.09A7.09,7.09,0,0,1,827.3,59Z" transform="translate(-11.72 -8.93)"/></g><g id="CIRCLE-11" data-name="CIRCLE"><path class="cls-1" d="M593.44,59a7.09,7.09,0,1,1,7.09,7.09A7.09,7.09,0,0,1,593.44,59Z" transform="translate(-11.72 -8.93)"/></g><g id="CIRCLE-12" data-name="CIRCLE"><path class="cls-1" d="M910.74,174.14a43.94,43.94,0,1,1,43.94,43.94,43.94,43.94,0,0,1-43.94-43.94Z" transform="translate(-11.72 -8.93)"/></g><g id="CIRCLE-13" data-name="CIRCLE"><path class="cls-1" d="M827.3,186.6a7.09,7.09,0,1,1,7.09,7.09,7.09,7.09,0,0,1-7.09-7.09Z" transform="translate(-11.72 -8.93)"/></g><g id="CIRCLE-14" data-name="CIRCLE"><path class="cls-1" d="M593.44,186.6a7.09,7.09,0,1,1,7.09,7.09,7.09,7.09,0,0,1-7.09-7.09Z" transform="translate(-11.72 -8.93)"/></g><g id="CIRCLE-15" data-name="CIRCLE"><path class="cls-1" d="M940.72,71.15a43.94,43.94,0,1,1,43.94,43.94,43.94,43.94,0,0,1-43.94-43.94Z" transform="translate(-11.72 -8.93)"/></g><g id="LINE-4" data-name="LINE"><polygon class="cls-1" points="1049.32 50.11 1049.32 78.45 1042.63 78.45 1042.63 149.32 1049.32 149.32 1049.32 177.66 1042.63 177.66 1042.63 220.19 545.78 220.19 545.78 177.66 539.09 177.66 539.09 149.32 545.78 149.32 545.78 78.45 539.09 78.45 539.09 50.11 545.78 50.11 545.78 7.59 1042.63 7.59 1042.63 50.11 1049.32 50.11"/></g><g id="CIRCLE-16" data-name="CIRCLE"><path class="cls-1" d="M965.66,578.34a5.67,5.67,0,1,1,5.67,5.67,5.67,5.67,0,0,1-5.67-5.67Z" transform="translate(-11.72 -8.93)"/></g><g id="CIRCLE-17" data-name="CIRCLE"><path class="cls-1" d="M639.68,578.34a5.67,5.67,0,1,1,5.67,5.67,5.67,5.67,0,0,1-5.67-5.67Z" transform="translate(-11.72 -8.93)"/></g><g id="CIRCLE-18" data-name="CIRCLE"><path class="cls-1" d="M965.66,280.71a5.67,5.67,0,1,1,5.67,5.67,5.67,5.67,0,0,1-5.67-5.67Z" transform="translate(-11.72 -8.93)"/></g><g id="CIRCLE-19" data-name="CIRCLE"><path class="cls-1" d="M639.68,280.71a5.67,5.67,0,1,1,5.67,5.67,5.67,5.67,0,0,1-5.67-5.67Z" transform="translate(-11.72 -8.93)"/></g><g id="LINE-5" data-name="LINE"><rect class="cls-1" x="575.52" y="291.61" width="442.2" height="257.95"/></g><g id="LINE-6" data-name="LINE"><polygon class="cls-1" points="604.89 240.59 661.59 240.59 661.59 249.09 931.66 249.09 931.66 240.59 988.35 240.59 988.35 249.09 1045.05 249.09 1045.05 299.24 1051.74 299.24 1051.74 355.93 1045.05 355.93 1045.05 483.49 1051.74 483.49 1051.74 540.18 1045.05 540.18 1045.05 596.88 548.2 596.88 548.2 540.18 541.5 540.18 541.5 483.49 548.2 483.49 548.2 355.93 541.5 355.93 541.5 299.24 548.2 299.24 548.2 249.09 604.89 249.09 604.89 240.59"/></g><g id="LINE-7" data-name="LINE"><polygon class="cls-1" points="604.89 631.32 661.59 631.32 661.59 624.62 931.66 624.62 931.66 631.32 988.35 631.32 988.35 624.62 1045.05 624.62 1045.05 667.14 1051.74 667.14 1051.74 723.83 1045.05 723.83 1045.05 766.35 988.35 766.35 988.35 759.66 931.66 759.66 931.66 766.35 661.59 766.35 661.59 759.66 604.89 759.66 604.89 766.35 548.2 766.35 548.2 723.83 541.5 723.83 541.5 667.14 548.2 667.14 548.2 624.62 604.89 624.62 604.89 631.32"/></g><g id="CIRCLE-20" data-name="CIRCLE"><path class="cls-1" d="M963.24,1130.06a5.67,5.67,0,1,1,5.67,5.67,5.67,5.67,0,0,1-5.67-5.67Z" transform="translate(-11.72 -8.93)"/></g><g id="CIRCLE-21" data-name="CIRCLE"><path class="cls-1" d="M637.26,1130.06a5.67,5.67,0,1,1,5.67,5.67,5.67,5.67,0,0,1-5.67-5.67Z" transform="translate(-11.72 -8.93)"/></g><g id="CIRCLE-22" data-name="CIRCLE"><path class="cls-1" d="M963.24,832.43a5.67,5.67,0,1,1,5.67,5.67,5.67,5.67,0,0,1-5.67-5.67Z" transform="translate(-11.72 -8.93)"/></g><g id="CIRCLE-23" data-name="CIRCLE"><path class="cls-1" d="M637.26,832.43a5.67,5.67,0,1,1,5.67,5.67,5.67,5.67,0,0,1-5.67-5.67Z" transform="translate(-11.72 -8.93)"/></g><g id="LINE-8" data-name="LINE"><rect class="cls-1" x="573.1" y="843.33" width="442.2" height="257.95"/></g><g id="LINE-9" data-name="LINE"><polygon class="cls-1" points="602.48 792.31 659.17 792.31 659.17 800.82 929.24 800.82 929.24 792.31 985.93 792.31 985.93 800.82 1042.63 800.82 1042.63 850.96 1049.32 850.96 1049.32 907.65 1042.63 907.65 1042.63 1035.21 1049.32 1035.21 1049.32 1091.9 1042.63 1091.9 1042.63 1148.6 545.78 1148.6 545.78 1091.9 539.09 1091.9 539.09 1035.21 545.78 1035.21 545.78 907.65 539.09 907.65 539.09 850.96 545.78 850.96 545.78 800.82 602.48 800.82 602.48 792.31"/></g><g id="CIRCLE-24" data-name="CIRCLE"><path class="cls-1" d="M1292.28,957.15a5.67,5.67,0,1,1,5.67,5.67,5.67,5.67,0,0,1-5.67-5.67Z" transform="translate(-11.72 -8.93)"/></g><g id="CIRCLE-25" data-name="CIRCLE"><path class="cls-1" d="M1232.24,1033.64a5.67,5.67,0,1,1,5.67,5.67,5.67,5.67,0,0,1-5.67-5.67Z" transform="translate(-11.72 -8.93)"/></g><g id="CIRCLE-26" data-name="CIRCLE"><path class="cls-1" d="M1292.28,857.94a5.67,5.67,0,1,1,5.67,5.67,5.67,5.67,0,0,1-5.67-5.67Z" transform="translate(-11.72 -8.93)"/></g><g id="CIRCLE-27" data-name="CIRCLE"><path class="cls-1" d="M1172.72,1033.64a5.67,5.67,0,1,1,5.67,5.67,5.67,5.67,0,0,1-5.67-5.67Z" transform="translate(-11.72 -8.93)"/></g><g id="ARC-10" data-name="ARC"><path class="cls-1" d="M1184.05,857.94a5.67,5.67,0,0,0-11.34,0v99.21a5.67,5.67,0,0,0,11.34,0Z" transform="translate(-11.72 -8.93)"/></g><g id="ARC-11" data-name="ARC"><path class="cls-1" d="M1203.9,857.94a5.67,5.67,0,1,0-11.34,0v99.21a5.67,5.67,0,1,0,11.34,0Z" transform="translate(-11.72 -8.93)"/></g><g id="ARC-12" data-name="ARC"><path class="cls-1" d="M1243.58,857.94a5.67,5.67,0,0,0-11.34,0v99.21a5.67,5.67,0,0,0,11.34,0Z" transform="translate(-11.72 -8.93)"/></g><g id="ARC-13" data-name="ARC"><path class="cls-1" d="M1223.74,857.94a5.67,5.67,0,0,0-11.34,0v99.21a5.67,5.67,0,0,0,11.34,0Z" transform="translate(-11.72 -8.93)"/></g><g id="CIRCLE-28" data-name="CIRCLE"><path class="cls-1" d="M1186.89,573.57a5.67,5.67,0,1,1,5.67,5.67,5.67,5.67,0,0,1-5.67-5.67Z" transform="translate(-11.72 -8.93)"/></g><g id="CIRCLE-29" data-name="CIRCLE"><path class="cls-1" d="M1186.89,773.91a5.67,5.67,0,1,1,5.67,5.67,5.67,5.67,0,0,1-5.67-5.67Z" transform="translate(-11.72 -8.93)"/></g><g id="CIRCLE-30" data-name="CIRCLE"><path class="cls-1" d="M1356.68,1091.8a4.25,4.25,0,1,1,4.25,4.25,4.25,4.25,0,0,1-4.25-4.25Z" transform="translate(-11.72 -8.93)"/></g><g id="CIRCLE-31" data-name="CIRCLE"><path class="cls-1" d="M1356.68,1141.4a4.25,4.25,0,1,1,4.25,4.25,4.25,4.25,0,0,1-4.25-4.25Z" transform="translate(-11.72 -8.93)"/></g><g id="CIRCLE-32" data-name="CIRCLE"><path class="cls-1" d="M1368.19,995.94a43.94,43.94,0,1,1,43.94,43.94,43.94,43.94,0,0,1-43.94-43.94Z" transform="translate(-11.72 -8.93)"/></g><g id="CIRCLE-33" data-name="CIRCLE"><path class="cls-1" d="M1408.7,1116.6a10.63,10.63,0,1,1,10.63,10.63,10.63,10.63,0,0,1-10.63-10.63Z" transform="translate(-11.72 -8.93)"/></g><g id="CIRCLE-34" data-name="CIRCLE"><path class="cls-1" d="M1186.89,678.5a5.67,5.67,0,1,1,5.67,5.67,5.67,5.67,0,0,1-5.67-5.67Z" transform="translate(-11.72 -8.93)"/></g><g id="LINE-10" data-name="LINE"><polygon class="cls-1" points="1195.02 437.98 1195.02 444.68 1138.32 444.68 1138.32 437.98 1095.8 437.98 1095.8 494.67 1102.5 494.67 1102.5 551.37 1095.8 551.37 1095.8 763.96 1102.5 763.96 1102.5 820.66 1095.8 820.66 1095.8 1033.26 1102.5 1033.26 1102.5 1089.95 1095.8 1089.95 1095.8 1146.64 1521 1146.64 1521 1089.95 1514.31 1089.95 1514.31 1033.26 1521 1033.26 1521 934.78 1514.31 934.78 1514.31 878.09 1521 878.09 1521 821.39 1479.13 814.01 1477.96 820.61 1450.05 815.68 1451.21 809.09 1381.42 796.78 1380.26 803.38 1352.34 798.46 1353.51 791.86 1311.63 784.48 1299.78 729.04 1293.23 730.44 1281.37 675 1287.92 673.6 1261.25 548.86 1254.7 550.26 1242.84 494.82 1249.39 493.42 1237.54 437.98 1195.02 437.98"/></g><g id="CIRCLE-35" data-name="CIRCLE"><path class="cls-1" d="M1351.18,219.45a5.67,5.67,0,1,1-5.67-5.67,5.67,5.67,0,0,1,5.67,5.67Z" transform="translate(-11.72 -8.93)"/></g><g id="CIRCLE-36" data-name="CIRCLE"><path class="cls-1" d="M1411.22,143a5.67,5.67,0,1,1-5.67-5.67,5.67,5.67,0,0,1,5.67,5.67Z" transform="translate(-11.72 -8.93)"/></g><g id="CIRCLE-37" data-name="CIRCLE"><path class="cls-1" d="M1351.18,318.66a5.67,5.67,0,1,1-5.67-5.67,5.67,5.67,0,0,1,5.67,5.67Z" transform="translate(-11.72 -8.93)"/></g><g id="CIRCLE-38" data-name="CIRCLE"><path class="cls-1" d="M1470.75,143a5.67,5.67,0,1,1-5.67-5.67,5.67,5.67,0,0,1,5.67,5.67Z" transform="translate(-11.72 -8.93)"/></g><g id="ARC-14" data-name="ARC"><path class="cls-1" d="M1459.41,318.66a5.67,5.67,0,1,0,11.34,0V219.45a5.67,5.67,0,1,0-11.34,0Z" transform="translate(-11.72 -8.93)"/></g><g id="ARC-15" data-name="ARC"><path class="cls-1" d="M1439.57,318.66a5.67,5.67,0,0,0,11.34,0V219.45a5.67,5.67,0,0,0-11.34,0Z" transform="translate(-11.72 -8.93)"/></g><g id="ARC-16" data-name="ARC"><path class="cls-1" d="M1399.88,318.66a5.67,5.67,0,1,0,11.34,0V219.45a5.67,5.67,0,1,0-11.34,0Z" transform="translate(-11.72 -8.93)"/></g><g id="ARC-17" data-name="ARC"><path class="cls-1" d="M1419.73,318.66a5.67,5.67,0,0,0,11.34,0V219.45a5.67,5.67,0,0,0-11.34,0Z" transform="translate(-11.72 -8.93)"/></g><g id="CIRCLE-39" data-name="CIRCLE"><path class="cls-1" d="M1456.58,603a5.67,5.67,0,1,1-5.67-5.67,5.67,5.67,0,0,1,5.67,5.67Z" transform="translate(-11.72 -8.93)"/></g><g id="CIRCLE-40" data-name="CIRCLE"><path class="cls-1" d="M1456.58,402.69a5.67,5.67,0,1,1-5.67-5.67,5.67,5.67,0,0,1,5.67,5.67Z" transform="translate(-11.72 -8.93)"/></g><g id="CIRCLE-41" data-name="CIRCLE"><path class="cls-1" d="M1286.78,84.81a4.25,4.25,0,1,1-4.25-4.25,4.25,4.25,0,0,1,4.25,4.25Z" transform="translate(-11.72 -8.93)"/></g><g id="CIRCLE-42" data-name="CIRCLE"><path class="cls-1" d="M1286.78,35.2a4.25,4.25,0,1,1-4.25-4.25,4.25,4.25,0,0,1,4.25,4.25Z" transform="translate(-11.72 -8.93)"/></g><g id="CIRCLE-43" data-name="CIRCLE"><path class="cls-1" d="M1275.28,180.67a43.94,43.94,0,1,1-43.94-43.94,43.94,43.94,0,0,1,43.94,43.94Z" transform="translate(-11.72 -8.93)"/></g><g id="CIRCLE-44" data-name="CIRCLE"><path class="cls-1" d="M1234.76,60a10.63,10.63,0,1,1-10.63-10.63A10.63,10.63,0,0,1,1234.76,60Z" transform="translate(-11.72 -8.93)"/></g><g id="CIRCLE-45" data-name="CIRCLE"><path class="cls-1" d="M1456.58,498.1a5.67,5.67,0,1,1-5.67-5.67,5.67,5.67,0,0,1,5.67,5.67Z" transform="translate(-11.72 -8.93)"/></g><g id="LINE-11" data-name="LINE"><polygon class="cls-1" points="1517.54 125.48 1524.23 125.48 1524.23 338.08 1517.54 338.08 1517.54 394.77 1524.23 394.77 1524.23 607.37 1517.54 607.37 1517.54 664.06 1524.23 664.06 1524.23 720.75 1481.71 720.75 1481.71 714.06 1425.02 714.06 1425.02 720.75 1382.5 720.75 1370.64 665.31 1377.19 663.91 1365.34 608.47 1358.79 609.87 1332.11 485.13 1338.66 483.74 1326.81 428.3 1320.26 429.7 1308.4 374.26 1266.53 366.87 1267.69 360.28 1239.78 355.36 1238.61 361.95 1168.82 349.64 1169.99 343.05 1142.07 338.13 1140.91 344.72 1099.03 337.34 1099.03 280.65 1105.73 280.65 1105.73 223.95 1099.03 223.95 1099.03 125.48 1105.73 125.48 1105.73 68.78 1099.03 68.78 1099.03 12.09 1524.23 12.09 1524.23 68.78 1517.54 68.78 1517.54 125.48"/></g></svg>